<svg width="12" height="13" viewBox="0 0 12 13" fill="none" xmlns="http://www.w3.org/2000/svg">
<path d="M9.2344 11.7654C9.15547 11.7657 9.07845 11.7411 9.01432 11.6951L6.00002 9.50981L2.98572 11.6951C2.92133 11.7418 2.84374 11.7668 2.76419 11.7666C2.68464 11.7663 2.60723 11.7407 2.54318 11.6935C2.47912 11.6463 2.43173 11.58 2.40785 11.5041C2.38396 11.4282 2.38484 11.3467 2.41033 11.2714L3.58596 7.78926L0.539084 5.69981C0.473087 5.6546 0.423276 5.58947 0.396929 5.51394C0.370582 5.4384 0.36908 5.35643 0.392643 5.27998C0.416206 5.20353 0.463598 5.13662 0.527895 5.08903C0.592193 5.04143 0.670025 5.01564 0.750022 5.01543H4.50893L5.6433 1.52442C5.66774 1.44905 5.71542 1.38336 5.77951 1.33676C5.84359 1.29017 5.92079 1.26508 6.00002 1.26508C6.07925 1.26508 6.15645 1.29017 6.22054 1.33676C6.28462 1.38336 6.3323 1.44905 6.35674 1.52442L7.49112 5.01661H11.25C11.3301 5.01657 11.4081 5.04217 11.4726 5.08968C11.5371 5.13718 11.5847 5.20408 11.6084 5.28059C11.6321 5.3571 11.6307 5.43919 11.6044 5.51483C11.5781 5.59048 11.5282 5.65571 11.4621 5.70098L8.41408 7.78926L9.58901 11.2704C9.60804 11.3268 9.6134 11.3869 9.60463 11.4457C9.59586 11.5046 9.57322 11.5605 9.53857 11.6088C9.50393 11.6572 9.45827 11.6966 9.40539 11.7238C9.3525 11.7511 9.29389 11.7653 9.2344 11.7654Z" fill="#FF859B"/>
</svg>
